<svg width="28" height="16" viewBox="0 0 28 16" fill="none" xmlns="http://www.w3.org/2000/svg">
<path d="M0.7 15L4.38 0.4H7.6L11.3 15H8.74L7.94 11.46H4.06L3.26 15H0.7ZM4.52 9.42H7.48L6.6 5.5C6.45333 4.84667 6.32667 4.26 6.22 3.74C6.11333 3.20667 6.04 2.82 6 2.58C5.96 2.82 5.88667 3.20667 5.78 3.74C5.68667 4.26 5.56 4.84 5.4 5.48L4.52 9.42ZM16.0722 15.2C15.1389 15.2 14.3189 15.0267 13.6122 14.68C12.9189 14.32 12.3789 13.82 11.9922 13.18C11.6189 12.5267 11.4322 11.76 11.4322 10.88V4.52C11.4322 3.62667 11.6189 2.86 11.9922 2.22C12.3789 1.58 12.9189 1.08667 13.6122 0.739999C14.3189 0.379999 15.1389 0.2 16.0722 0.2C17.0189 0.2 17.8322 0.379999 18.5122 0.739999C19.2055 1.08667 19.7455 1.58 20.1322 2.22C20.5189 2.86 20.7122 3.62667 20.7122 4.52H18.1922C18.1922 3.82667 18.0055 3.3 17.6322 2.94C17.2722 2.58 16.7522 2.4 16.0722 2.4C15.3922 2.4 14.8655 2.58 14.4922 2.94C14.1189 3.3 13.9322 3.82 13.9322 4.5V10.88C13.9322 11.56 14.1189 12.0867 14.4922 12.46C14.8655 12.8333 15.3922 13.02 16.0722 13.02C16.7522 13.02 17.2722 12.8333 17.6322 12.46C18.0055 12.0867 18.1922 11.56 18.1922 10.88V9.4H15.7122V7.24H20.7122V10.88C20.7122 11.76 20.5189 12.5267 20.1322 13.18C19.7455 13.82 19.2055 14.32 18.5122 14.68C17.8322 15.0267 17.0189 15.2 16.0722 15.2ZM25.9844 15.2C25.411 15.2 24.951 15.0333 24.6044 14.7C24.271 14.3667 24.1044 13.9133 24.1044 13.34C24.1044 12.7667 24.271 12.3133 24.6044 11.98C24.951 11.6333 25.411 11.46 25.9844 11.46C26.5577 11.46 27.011 11.6333 27.3444 11.98C27.691 12.3133 27.8644 12.7667 27.8644 13.34C27.8644 13.9133 27.691 14.3667 27.3444 14.7C27.011 15.0333 26.5577 15.2 25.9844 15.2Z" fill="black"/>
</svg>